# xmcd
#
# Track frame offsets:
# 150
# 14366
# 28421
# 45738
# 61557
# 74796
# 87595
# 102126
# 119687
# 138125
# 155414
# 169465
# 183136
# 201138
# 219392
#
# Disc length: 3398 seconds
#
#
# Revision: 0
# Processed by: cddbd v1.4PL0 Copyright (c) Steve Scherf et al.
# Submitted via: FreeRIP 2.35 
#
DISCID=d80d440f
DTITLE=Various Artist - Peter Posa My Pick [CD 2)
DYEAR=2003
DGENRE=Gospel
TTITLE0=Amazing Grace (Newton)
TTITLE1=The Old Rugged Cross (Bennard)
TTITLE2=What A Friend We Have In Jesus (Converse/Scriven)
TTITLE3=Silent Night (Grubor/Mohr)
TTITLE4=He Touched Me (Gaithers)
TTITLE5=I Surrender All (Van De Venter/Weeden)
TTITLE6=Why Me (Kristofferson)
TTITLE7=Whispering Hope (Hawthorne)
TTITLE8=Near The Cross (Crosby)
TTITLE9=Just As I Am (Bradbury/ Elliot)
TTITLE10=Softly And Tenderly (Trad)
TTITLE11=In The Garden (Trad)
TTITLE12=Highest Place (Pink)
TTITLE13=The Healer (Erwin)
TTITLE14=Scripture Song Medley a Come Holy Spirit b. Oh How I Love Jesus c. He's The Saviour Of My Soul d. Cause Me To Come e Set My Spir
EXTD=
EXTT0=
EXTT1=
EXTT2=
EXTT3=
EXTT4=
EXTT5=
EXTT6=
EXTT7=
EXTT8=
EXTT9=
EXTT10=
EXTT11=
EXTT12=
EXTT13=
EXTT14=
PLAYORDER=
